  <svg
    width="30"
    height="30"
    viewBox="0 0 30 30"
    xmlns="http://www.w3.org/2000/svg"
    fill="currentColor"
  >
    <g>
      <path
        d="M15,22.5c-1,0-2-0.2-2.9-0.6c-0.9-0.4-1.7-0.9-2.4-1.6c-0.7-0.7-1.2-1.5-1.6-2.4
		C7.7,17,7.5,16,7.5,15s0.2-2,0.6-2.9S9,10.4,9.7,9.7c0.7-0.7,1.5-1.2,2.4-1.6C13,7.7,14,7.5,15,7.5s2,0.2,2.9,0.6s1.7,0.9,2.4,1.6
		c0.7,0.7,1.2,1.5,1.6,2.4c0.4,0.9,0.6,1.9,0.6,2.9s-0.2,2-0.6,2.9c-0.4,0.9-0.9,1.7-1.6,2.4c-0.7,0.7-1.5,1.2-2.4,1.6
		C17,22.3,16,22.5,15,22.5z M15.8,20.9c1.5-0.2,2.7-0.8,3.7-2s1.5-2.4,1.5-4s-0.5-2.9-1.5-4s-2.3-1.8-3.7-2V20.9z"
      />
    </g>
  </svg>