  <svg
    width="30"
    height="30"
    viewBox="0 0 30 30"
    xmlns="http://www.w3.org/2000/svg"
    fill="currentColor"
  >
    <g>
      <path
        d="M15,22.5c-2.1,0-3.9-0.7-5.3-2.2S7.5,17.1,7.5,15s0.7-3.9,2.2-5.3s3.2-2.2,5.3-2.2
		c1.1,0,2.1,0.2,3.1,0.7s1.8,1.1,2.5,1.9V7.5h1.9v6.6h-6.6v-1.9h3.9c-0.5-0.9-1.2-1.6-2.1-2.1C17,9.6,16,9.4,15,9.4
		c-1.6,0-2.9,0.5-4,1.6s-1.6,2.4-1.6,4s0.5,2.9,1.6,4s2.4,1.6,4,1.6c1.2,0,2.3-0.3,3.3-1s1.6-1.6,2-2.7h2c-0.4,1.7-1.3,3-2.7,4.1
		S16.7,22.5,15,22.5z"
      />
    </g>
  </svg>